<svg width="236" height="24" viewBox="0 0 236 24" fill="none" xmlns="http://www.w3.org/2000/svg">
<path d="M5.524 7.18V11.156H11.936V14.852H5.524V19.164H12.776V23H0.736V3.344H12.776V7.18H5.524ZM14.9324 15.16C14.9324 13.5547 15.2311 12.1453 15.8284 10.932C16.4444 9.71867 17.2751 8.78533 18.3204 8.132C19.3658 7.47867 20.5324 7.152 21.8204 7.152C22.8471 7.152 23.7804 7.36667 24.6204 7.796C25.4791 8.22533 26.1511 8.804 26.6364 9.532V2.28H31.4244V23H26.6364V20.76C26.1884 21.5067 25.5444 22.104 24.7044 22.552C23.8831 23 22.9218 23.224 21.8204 23.224C20.5324 23.224 19.3658 22.8973 18.3204 22.244C17.2751 21.572 16.4444 20.6293 15.8284 19.416C15.2311 18.184 14.9324 16.7653 14.9324 15.16ZM26.6364 15.188C26.6364 13.9933 26.3004 13.0507 25.6284 12.36C24.9751 11.6693 24.1724 11.324 23.2204 11.324C22.2684 11.324 21.4564 11.6693 20.7844 12.36C20.1311 13.032 19.8044 13.9653 19.8044 15.16C19.8044 16.3547 20.1311 17.3067 20.7844 18.016C21.4564 18.7067 22.2684 19.052 23.2204 19.052C24.1724 19.052 24.9751 18.7067 25.6284 18.016C26.3004 17.3253 26.6364 16.3827 26.6364 15.188ZM37.2963 5.752C36.4563 5.752 35.7657 5.50933 35.2243 5.024C34.7017 4.52 34.4403 3.904 34.4403 3.176C34.4403 2.42933 34.7017 1.81333 35.2243 1.328C35.7657 0.823998 36.4563 0.571998 37.2963 0.571998C38.1177 0.571998 38.7897 0.823998 39.3123 1.328C39.8537 1.81333 40.1243 2.42933 40.1243 3.176C40.1243 3.904 39.8537 4.52 39.3123 5.024C38.7897 5.50933 38.1177 5.752 37.2963 5.752ZM39.6763 7.376V23H34.8883V7.376H39.6763ZM51.8542 18.94V23H49.4182C47.6822 23 46.3288 22.58 45.3582 21.74C44.3875 20.8813 43.9022 19.4907 43.9022 17.568V11.352H41.9982V7.376H43.9022V3.568H48.6902V7.376H51.8262V11.352H48.6902V17.624C48.6902 18.0907 48.8022 18.4267 49.0262 18.632C49.2502 18.8373 49.6235 18.94 50.1462 18.94H51.8542ZM59.6427 13.144C59.6427 11.2027 60.0628 9.476 60.9028 7.964C61.7428 6.43333 62.9094 5.248 64.4028 4.408C65.9148 3.54933 67.6228 3.12 69.5268 3.12C71.8601 3.12 73.8574 3.736 75.5188 4.968C77.1801 6.2 78.2908 7.88 78.8508 10.008H73.5868C73.1948 9.18667 72.6348 8.56133 71.9068 8.132C71.1974 7.70267 70.3854 7.488 69.4708 7.488C67.9961 7.488 66.8014 8.00133 65.8868 9.028C64.9721 10.0547 64.5148 11.4267 64.5148 13.144C64.5148 14.8613 64.9721 16.2333 65.8868 17.26C66.8014 18.2867 67.9961 18.8 69.4708 18.8C70.3854 18.8 71.1974 18.5853 71.9068 18.156C72.6348 17.7267 73.1948 17.1013 73.5868 16.28H78.8508C78.2908 18.408 77.1801 20.088 75.5188 21.32C73.8574 22.5333 71.8601 23.14 69.5268 23.14C67.6228 23.14 65.9148 22.72 64.4028 21.88C62.9094 21.0213 61.7428 19.836 60.9028 18.324C60.0628 16.812 59.6427 15.0853 59.6427 13.144ZM88.8949 23.224C87.3642 23.224 85.9829 22.8973 84.7509 22.244C83.5375 21.5907 82.5762 20.6573 81.8669 19.444C81.1762 18.2307 80.8309 16.812 80.8309 15.188C80.8309 13.5827 81.1855 12.1733 81.8949 10.96C82.6042 9.728 83.5749 8.78533 84.8069 8.132C86.0389 7.47867 87.4202 7.152 88.9509 7.152C90.4815 7.152 91.8629 7.47867 93.0949 8.132C94.3269 8.78533 95.2975 9.728 96.0069 10.96C96.7162 12.1733 97.0709 13.5827 97.0709 15.188C97.0709 16.7933 96.7069 18.212 95.9789 19.444C95.2695 20.6573 94.2895 21.5907 93.0389 22.244C91.8069 22.8973 90.4255 23.224 88.8949 23.224ZM88.8949 19.08C89.8095 19.08 90.5842 18.744 91.2189 18.072C91.8722 17.4 92.1989 16.4387 92.1989 15.188C92.1989 13.9373 91.8815 12.976 91.2469 12.304C90.6309 11.632 89.8655 11.296 88.9509 11.296C88.0175 11.296 87.2429 11.632 86.6269 12.304C86.0109 12.9573 85.7029 13.9187 85.7029 15.188C85.7029 16.4387 86.0015 17.4 86.5989 18.072C87.2149 18.744 87.9802 19.08 88.8949 19.08ZM98.659 15.16C98.659 13.5547 98.9577 12.1453 99.555 10.932C100.171 9.71867 101.002 8.78533 102.047 8.132C103.092 7.47867 104.259 7.152 105.547 7.152C106.574 7.152 107.507 7.36667 108.347 7.796C109.206 8.22533 109.878 8.804 110.363 9.532V2.28H115.151V23H110.363V20.76C109.915 21.5067 109.271 22.104 108.431 22.552C107.61 23 106.648 23.224 105.547 23.224C104.259 23.224 103.092 22.8973 102.047 22.244C101.002 21.572 100.171 20.6293 99.555 19.416C98.9577 18.184 98.659 16.7653 98.659 15.16ZM110.363 15.188C110.363 13.9933 110.027 13.0507 109.355 12.36C108.702 11.6693 107.899 11.324 106.947 11.324C105.995 11.324 105.183 11.6693 104.511 12.36C103.858 13.032 103.531 13.9653 103.531 15.16C103.531 16.3547 103.858 17.3067 104.511 18.016C105.183 18.7067 105.995 19.052 106.947 19.052C107.899 19.052 108.702 18.7067 109.355 18.016C110.027 17.3253 110.363 16.3827 110.363 15.188ZM133.343 14.936C133.343 15.384 133.315 15.8507 133.259 16.336H122.423C122.498 17.3067 122.806 18.0533 123.347 18.576C123.907 19.08 124.588 19.332 125.391 19.332C126.586 19.332 127.416 18.828 127.883 17.82H132.979C132.718 18.8467 132.242 19.7707 131.551 20.592C130.879 21.4133 130.03 22.0573 129.003 22.524C127.976 22.9907 126.828 23.224 125.559 23.224C124.028 23.224 122.666 22.8973 121.471 22.244C120.276 21.5907 119.343 20.6573 118.671 19.444C117.999 18.2307 117.663 16.812 117.663 15.188C117.663 13.564 117.99 12.1453 118.643 10.932C119.315 9.71867 120.248 8.78533 121.443 8.132C122.638 7.47867 124.01 7.152 125.559 7.152C127.071 7.152 128.415 7.46933 129.591 8.104C130.767 8.73867 131.682 9.644 132.335 10.82C133.007 11.996 133.343 13.368 133.343 14.936ZM128.443 13.676C128.443 12.8547 128.163 12.2013 127.603 11.716C127.043 11.2307 126.343 10.988 125.503 10.988C124.7 10.988 124.019 11.2213 123.459 11.688C122.918 12.1547 122.582 12.8173 122.451 13.676H128.443ZM148.914 23.196C147.477 23.196 146.189 22.9627 145.05 22.496C143.912 22.0293 142.997 21.3387 142.306 20.424C141.634 19.5093 141.28 18.408 141.242 17.12H146.338C146.413 17.848 146.665 18.408 147.094 18.8C147.524 19.1733 148.084 19.36 148.774 19.36C149.484 19.36 150.044 19.2013 150.454 18.884C150.865 18.548 151.07 18.0907 151.07 17.512C151.07 17.0267 150.902 16.6253 150.566 16.308C150.249 15.9907 149.848 15.7293 149.362 15.524C148.896 15.3187 148.224 15.0853 147.346 14.824C146.077 14.432 145.041 14.04 144.238 13.648C143.436 13.256 142.745 12.6773 142.166 11.912C141.588 11.1467 141.298 10.148 141.298 8.916C141.298 7.08667 141.961 5.65867 143.286 4.632C144.612 3.58667 146.338 3.064 148.466 3.064C150.632 3.064 152.377 3.58667 153.702 4.632C155.028 5.65867 155.737 7.096 155.83 8.944H150.65C150.613 8.30933 150.38 7.81467 149.95 7.46C149.521 7.08667 148.97 6.9 148.298 6.9C147.72 6.9 147.253 7.05867 146.898 7.376C146.544 7.67467 146.366 8.11333 146.366 8.692C146.366 9.32667 146.665 9.82133 147.262 10.176C147.86 10.5307 148.793 10.9133 150.062 11.324C151.332 11.7533 152.358 12.164 153.142 12.556C153.945 12.948 154.636 13.5173 155.214 14.264C155.793 15.0107 156.082 15.972 156.082 17.148C156.082 18.268 155.793 19.2853 155.214 20.2C154.654 21.1147 153.833 21.8427 152.75 22.384C151.668 22.9253 150.389 23.196 148.914 23.196ZM158.077 15.188C158.077 13.564 158.404 12.1453 159.057 10.932C159.729 9.71867 160.653 8.78533 161.829 8.132C163.024 7.47867 164.386 7.152 165.917 7.152C167.877 7.152 169.51 7.66533 170.817 8.692C172.142 9.71867 173.01 11.1653 173.421 13.032H168.325C167.896 11.8373 167.065 11.24 165.833 11.24C164.956 11.24 164.256 11.5853 163.733 12.276C163.21 12.948 162.949 13.9187 162.949 15.188C162.949 16.4573 163.21 17.4373 163.733 18.128C164.256 18.8 164.956 19.136 165.833 19.136C167.065 19.136 167.896 18.5387 168.325 17.344H173.421C173.01 19.1733 172.142 20.6107 170.817 21.656C169.492 22.7013 167.858 23.224 165.917 23.224C164.386 23.224 163.024 22.8973 161.829 22.244C160.653 21.5907 159.729 20.6573 159.057 19.444C158.404 18.2307 158.077 16.812 158.077 15.188ZM185.586 7.208C187.378 7.208 188.815 7.80533 189.898 9C190.981 10.176 191.522 11.8 191.522 13.872V23H186.762V14.516C186.762 13.4707 186.491 12.6587 185.95 12.08C185.409 11.5013 184.681 11.212 183.766 11.212C182.851 11.212 182.123 11.5013 181.582 12.08C181.041 12.6587 180.77 13.4707 180.77 14.516V23H175.982V2.28H180.77V9.476C181.255 8.78533 181.918 8.23467 182.758 7.824C183.598 7.41333 184.541 7.208 185.586 7.208ZM201.961 23.224C200.431 23.224 199.049 22.8973 197.817 22.244C196.604 21.5907 195.643 20.6573 194.933 19.444C194.243 18.2307 193.897 16.812 193.897 15.188C193.897 13.5827 194.252 12.1733 194.961 10.96C195.671 9.728 196.641 8.78533 197.873 8.132C199.105 7.47867 200.487 7.152 202.017 7.152C203.548 7.152 204.929 7.47867 206.161 8.132C207.393 8.78533 208.364 9.728 209.073 10.96C209.783 12.1733 210.137 13.5827 210.137 15.188C210.137 16.7933 209.773 18.212 209.045 19.444C208.336 20.6573 207.356 21.5907 206.105 22.244C204.873 22.8973 203.492 23.224 201.961 23.224ZM201.961 19.08C202.876 19.08 203.651 18.744 204.285 18.072C204.939 17.4 205.265 16.4387 205.265 15.188C205.265 13.9373 204.948 12.976 204.313 12.304C203.697 11.632 202.932 11.296 202.017 11.296C201.084 11.296 200.309 11.632 199.693 12.304C199.077 12.9573 198.769 13.9187 198.769 15.188C198.769 16.4387 199.068 17.4 199.665 18.072C200.281 18.744 201.047 19.08 201.961 19.08ZM219.789 23.224C218.259 23.224 216.877 22.8973 215.645 22.244C214.432 21.5907 213.471 20.6573 212.761 19.444C212.071 18.2307 211.725 16.812 211.725 15.188C211.725 13.5827 212.08 12.1733 212.789 10.96C213.499 9.728 214.469 8.78533 215.701 8.132C216.933 7.47867 218.315 7.152 219.845 7.152C221.376 7.152 222.757 7.47867 223.989 8.132C225.221 8.78533 226.192 9.728 226.901 10.96C227.611 12.1733 227.965 13.5827 227.965 15.188C227.965 16.7933 227.601 18.212 226.873 19.444C226.164 20.6573 225.184 21.5907 223.933 22.244C222.701 22.8973 221.32 23.224 219.789 23.224ZM219.789 19.08C220.704 19.08 221.479 18.744 222.113 18.072C222.767 17.4 223.093 16.4387 223.093 15.188C223.093 13.9373 222.776 12.976 222.141 12.304C221.525 11.632 220.76 11.296 219.845 11.296C218.912 11.296 218.137 11.632 217.521 12.304C216.905 12.9573 216.597 13.9187 216.597 15.188C216.597 16.4387 216.896 17.4 217.493 18.072C218.109 18.744 218.875 19.08 219.789 19.08ZM235.294 2.28V23H230.506V2.28H235.294Z" fill="#2878EB"/>
</svg>
