<svg width="151" height="16" viewBox="0 0 151 16" fill="none" xmlns="http://www.w3.org/2000/svg">
<path d="M3.194 4.83V7.386H7.316V9.762H3.194V12.534H7.856V15H0.116V2.364H7.856V4.83H3.194ZM9.24228 9.96C9.24228 8.928 9.43428 8.022 9.81828 7.242C10.2143 6.462 10.7483 5.862 11.4203 5.442C12.0923 5.022 12.8423 4.812 13.6703 4.812C14.3303 4.812 14.9303 4.95 15.4703 5.226C16.0223 5.502 16.4543 5.874 16.7663 6.342V1.68H19.8443V15H16.7663V13.56C16.4783 14.04 16.0643 14.424 15.5243 14.712C14.9963 15 14.3783 15.144 13.6703 15.144C12.8423 15.144 12.0923 14.934 11.4203 14.514C10.7483 14.082 10.2143 13.476 9.81828 12.696C9.43428 11.904 9.24228 10.992 9.24228 9.96ZM16.7663 9.978C16.7663 9.21 16.5503 8.604 16.1183 8.16C15.6983 7.716 15.1823 7.494 14.5703 7.494C13.9583 7.494 13.4363 7.716 13.0043 8.16C12.5843 8.592 12.3743 9.192 12.3743 9.96C12.3743 10.728 12.5843 11.34 13.0043 11.796C13.4363 12.24 13.9583 12.462 14.5703 12.462C15.1823 12.462 15.6983 12.24 16.1183 11.796C16.5503 11.352 16.7663 10.746 16.7663 9.978ZM23.6191 3.912C23.0791 3.912 22.6351 3.756 22.2871 3.444C21.9511 3.12 21.7831 2.724 21.7831 2.256C21.7831 1.776 21.9511 1.38 22.2871 1.068C22.6351 0.743999 23.0791 0.581999 23.6191 0.581999C24.1471 0.581999 24.5791 0.743999 24.9151 1.068C25.2631 1.38 25.4371 1.776 25.4371 2.256C25.4371 2.724 25.2631 3.12 24.9151 3.444C24.5791 3.756 24.1471 3.912 23.6191 3.912ZM25.1491 4.956V15H22.0711V4.956H25.1491ZM32.9777 12.39V15H31.4117C30.2957 15 29.4257 14.73 28.8017 14.19C28.1777 13.638 27.8657 12.744 27.8657 11.508V7.512H26.6417V4.956H27.8657V2.508H30.9437V4.956H32.9597V7.512H30.9437V11.544C30.9437 11.844 31.0157 12.06 31.1597 12.192C31.3037 12.324 31.5437 12.39 31.8797 12.39H32.9777ZM37.9846 8.664C37.9846 7.416 38.2546 6.306 38.7946 5.334C39.3346 4.35 40.0846 3.588 41.0446 3.048C42.0166 2.496 43.1146 2.22 44.3386 2.22C45.8386 2.22 47.1226 2.616 48.1906 3.408C49.2586 4.2 49.9726 5.28 50.3326 6.648H46.9486C46.6966 6.12 46.3366 5.718 45.8686 5.442C45.4126 5.166 44.8906 5.028 44.3026 5.028C43.3546 5.028 42.5866 5.358 41.9986 6.018C41.4106 6.678 41.1166 7.56 41.1166 8.664C41.1166 9.768 41.4106 10.65 41.9986 11.31C42.5866 11.97 43.3546 12.3 44.3026 12.3C44.8906 12.3 45.4126 12.162 45.8686 11.886C46.3366 11.61 46.6966 11.208 46.9486 10.68H50.3326C49.9726 12.048 49.2586 13.128 48.1906 13.92C47.1226 14.7 45.8386 15.09 44.3386 15.09C43.1146 15.09 42.0166 14.82 41.0446 14.28C40.0846 13.728 39.3346 12.966 38.7946 11.994C38.2546 11.022 37.9846 9.912 37.9846 8.664ZM56.7896 15.144C55.8056 15.144 54.9176 14.934 54.1256 14.514C53.3456 14.094 52.7276 13.494 52.2716 12.714C51.8276 11.934 51.6056 11.022 51.6056 9.978C51.6056 8.946 51.8336 8.04 52.2896 7.26C52.7456 6.468 53.3696 5.862 54.1616 5.442C54.9536 5.022 55.8416 4.812 56.8256 4.812C57.8096 4.812 58.6976 5.022 59.4896 5.442C60.2816 5.862 60.9056 6.468 61.3616 7.26C61.8176 8.04 62.0456 8.946 62.0456 9.978C62.0456 11.01 61.8116 11.922 61.3436 12.714C60.8876 13.494 60.2576 14.094 59.4536 14.514C58.6616 14.934 57.7736 15.144 56.7896 15.144ZM56.7896 12.48C57.3776 12.48 57.8756 12.264 58.2836 11.832C58.7036 11.4 58.9136 10.782 58.9136 9.978C58.9136 9.174 58.7096 8.556 58.3016 8.124C57.9056 7.692 57.4136 7.476 56.8256 7.476C56.2256 7.476 55.7276 7.692 55.3316 8.124C54.9356 8.544 54.7376 9.162 54.7376 9.978C54.7376 10.782 54.9296 11.4 55.3136 11.832C55.7096 12.264 56.2016 12.48 56.7896 12.48ZM63.0665 9.96C63.0665 8.928 63.2585 8.022 63.6425 7.242C64.0385 6.462 64.5725 5.862 65.2445 5.442C65.9165 5.022 66.6665 4.812 67.4945 4.812C68.1545 4.812 68.7545 4.95 69.2945 5.226C69.8465 5.502 70.2785 5.874 70.5905 6.342V1.68H73.6685V15H70.5905V13.56C70.3025 14.04 69.8885 14.424 69.3485 14.712C68.8205 15 68.2025 15.144 67.4945 15.144C66.6665 15.144 65.9165 14.934 65.2445 14.514C64.5725 14.082 64.0385 13.476 63.6425 12.696C63.2585 11.904 63.0665 10.992 63.0665 9.96ZM70.5905 9.978C70.5905 9.21 70.3745 8.604 69.9425 8.16C69.5225 7.716 69.0065 7.494 68.3945 7.494C67.7825 7.494 67.2605 7.716 66.8285 8.16C66.4085 8.592 66.1985 9.192 66.1985 9.96C66.1985 10.728 66.4085 11.34 66.8285 11.796C67.2605 12.24 67.7825 12.462 68.3945 12.462C69.0065 12.462 69.5225 12.24 69.9425 11.796C70.3745 11.352 70.5905 10.746 70.5905 9.978ZM85.3633 9.816C85.3633 10.104 85.3453 10.404 85.3093 10.716H78.3433C78.3913 11.34 78.5893 11.82 78.9373 12.156C79.2973 12.48 79.7353 12.642 80.2513 12.642C81.0193 12.642 81.5533 12.318 81.8533 11.67H85.1293C84.9613 12.33 84.6553 12.924 84.2113 13.452C83.7793 13.98 83.2333 14.394 82.5733 14.694C81.9133 14.994 81.1753 15.144 80.3593 15.144C79.3753 15.144 78.4993 14.934 77.7313 14.514C76.9633 14.094 76.3633 13.494 75.9313 12.714C75.4993 11.934 75.2833 11.022 75.2833 9.978C75.2833 8.934 75.4933 8.022 75.9133 7.242C76.3453 6.462 76.9453 5.862 77.7133 5.442C78.4813 5.022 79.3633 4.812 80.3593 4.812C81.3313 4.812 82.1953 5.016 82.9513 5.424C83.7073 5.832 84.2953 6.414 84.7153 7.17C85.1473 7.926 85.3633 8.808 85.3633 9.816ZM82.2133 9.006C82.2133 8.478 82.0333 8.058 81.6733 7.746C81.3133 7.434 80.8633 7.278 80.3233 7.278C79.8073 7.278 79.3693 7.428 79.0093 7.728C78.6613 8.028 78.4453 8.454 78.3613 9.006H82.2133ZM95.3735 15.126C94.4495 15.126 93.6215 14.976 92.8895 14.676C92.1575 14.376 91.5695 13.932 91.1255 13.344C90.6935 12.756 90.4655 12.048 90.4415 11.22H93.7175C93.7655 11.688 93.9275 12.048 94.2035 12.3C94.4795 12.54 94.8395 12.66 95.2835 12.66C95.7395 12.66 96.0995 12.558 96.3635 12.354C96.6275 12.138 96.7595 11.844 96.7595 11.472C96.7595 11.16 96.6515 10.902 96.4355 10.698C96.2315 10.494 95.9735 10.326 95.6615 10.194C95.3615 10.062 94.9295 9.912 94.3655 9.744C93.5495 9.492 92.8835 9.24 92.3675 8.988C91.8515 8.736 91.4075 8.364 91.0355 7.872C90.6635 7.38 90.4775 6.738 90.4775 5.946C90.4775 4.77 90.9035 3.852 91.7555 3.192C92.6075 2.52 93.7175 2.184 95.0855 2.184C96.4775 2.184 97.5995 2.52 98.4515 3.192C99.3035 3.852 99.7595 4.776 99.8195 5.964H96.4895C96.4655 5.556 96.3155 5.238 96.0395 5.01C95.7635 4.77 95.4095 4.65 94.9775 4.65C94.6055 4.65 94.3055 4.752 94.0775 4.956C93.8495 5.148 93.7355 5.43 93.7355 5.802C93.7355 6.21 93.9275 6.528 94.3115 6.756C94.6955 6.984 95.2955 7.23 96.1115 7.494C96.9275 7.77 97.5875 8.034 98.0915 8.286C98.6075 8.538 99.0515 8.904 99.4235 9.384C99.7955 9.864 99.9815 10.482 99.9815 11.238C99.9815 11.958 99.7955 12.612 99.4235 13.2C99.0635 13.788 98.5355 14.256 97.8395 14.604C97.1435 14.952 96.3215 15.126 95.3735 15.126ZM101.264 9.978C101.264 8.934 101.474 8.022 101.894 7.242C102.326 6.462 102.92 5.862 103.676 5.442C104.444 5.022 105.32 4.812 106.304 4.812C107.564 4.812 108.614 5.142 109.454 5.802C110.306 6.462 110.864 7.392 111.128 8.592H107.852C107.576 7.824 107.042 7.44 106.25 7.44C105.686 7.44 105.236 7.662 104.9 8.106C104.564 8.538 104.396 9.162 104.396 9.978C104.396 10.794 104.564 11.424 104.9 11.868C105.236 12.3 105.686 12.516 106.25 12.516C107.042 12.516 107.576 12.132 107.852 11.364H111.128C110.864 12.54 110.306 13.464 109.454 14.136C108.602 14.808 107.552 15.144 106.304 15.144C105.32 15.144 104.444 14.934 103.676 14.514C102.92 14.094 102.326 13.494 101.894 12.714C101.474 11.934 101.264 11.022 101.264 9.978ZM118.948 4.848C120.1 4.848 121.024 5.232 121.72 6C122.416 6.756 122.764 7.8 122.764 9.132V15H119.704V9.546C119.704 8.874 119.53 8.352 119.182 7.98C118.834 7.608 118.366 7.422 117.778 7.422C117.19 7.422 116.722 7.608 116.374 7.98C116.026 8.352 115.852 8.874 115.852 9.546V15H112.774V1.68H115.852V6.306C116.164 5.862 116.59 5.508 117.13 5.244C117.67 4.98 118.276 4.848 118.948 4.848ZM129.475 15.144C128.491 15.144 127.603 14.934 126.811 14.514C126.031 14.094 125.413 13.494 124.957 12.714C124.513 11.934 124.291 11.022 124.291 9.978C124.291 8.946 124.519 8.04 124.975 7.26C125.431 6.468 126.055 5.862 126.847 5.442C127.639 5.022 128.527 4.812 129.511 4.812C130.495 4.812 131.383 5.022 132.175 5.442C132.967 5.862 133.591 6.468 134.047 7.26C134.503 8.04 134.731 8.946 134.731 9.978C134.731 11.01 134.497 11.922 134.029 12.714C133.573 13.494 132.943 14.094 132.139 14.514C131.347 14.934 130.459 15.144 129.475 15.144ZM129.475 12.48C130.063 12.48 130.561 12.264 130.969 11.832C131.389 11.4 131.599 10.782 131.599 9.978C131.599 9.174 131.395 8.556 130.987 8.124C130.591 7.692 130.099 7.476 129.511 7.476C128.911 7.476 128.413 7.692 128.017 8.124C127.621 8.544 127.423 9.162 127.423 9.978C127.423 10.782 127.615 11.4 127.999 11.832C128.395 12.264 128.887 12.48 129.475 12.48ZM140.936 15.144C139.952 15.144 139.064 14.934 138.272 14.514C137.492 14.094 136.874 13.494 136.418 12.714C135.974 11.934 135.752 11.022 135.752 9.978C135.752 8.946 135.98 8.04 136.436 7.26C136.892 6.468 137.516 5.862 138.308 5.442C139.1 5.022 139.988 4.812 140.972 4.812C141.956 4.812 142.844 5.022 143.636 5.442C144.428 5.862 145.052 6.468 145.508 7.26C145.964 8.04 146.192 8.946 146.192 9.978C146.192 11.01 145.958 11.922 145.49 12.714C145.034 13.494 144.404 14.094 143.6 14.514C142.808 14.934 141.92 15.144 140.936 15.144ZM140.936 12.48C141.524 12.48 142.022 12.264 142.43 11.832C142.85 11.4 143.06 10.782 143.06 9.978C143.06 9.174 142.856 8.556 142.448 8.124C142.052 7.692 141.56 7.476 140.972 7.476C140.372 7.476 139.874 7.692 139.478 8.124C139.082 8.544 138.884 9.162 138.884 9.978C138.884 10.782 139.076 11.4 139.46 11.832C139.856 12.264 140.348 12.48 140.936 12.48ZM150.903 1.68V15H147.825V1.68H150.903Z" fill="#2878EB"/>
</svg>
